<?xml version="1.0" standalone="no"?>
<!DOCTYPE svg PUBLIC "-//W3C//DTD SVG 20010904//EN"
 "http://www.w3.org/TR/2001/REC-SVG-20010904/DTD/svg10.dtd">
<svg version="1.0" xmlns="http://www.w3.org/2000/svg"
 width="1754.000000pt" height="1240.000000pt" viewBox="0 0 1754.000000 1240.000000"
 preserveAspectRatio="xMidYMid meet">

<g transform="translate(0.000000,1240.000000) scale(0.100000,-0.100000)"
fill="#000000" stroke="none">
<path d="M3105 6824 c-560 -55 -958 -128 -1500 -274 -313 -85 -339 -98 -100
-50 346 70 690 122 1035 157 219 22 761 25 920 5 534 -67 869 -244 1010 -537
65 -135 75 -186 74 -385 -1 -162 -3 -184 -31 -290 -17 -63 -34 -124 -38 -135
-19 -58 28 43 60 130 54 143 103 347 113 467 41 502 -211 784 -798 890 -96 17
-163 21 -410 23 -162 2 -313 1 -335 -1z"/>
<path d="M15052 6700 c-13 -10 -57 -59 -99 -107 l-75 -88 37 -3 c29 -3 51 6
118 48 45 29 92 61 105 73 24 22 29 66 10 85 -18 18 -70 14 -96 -8z"/>
<path d="M3087 6483 c-72 -151 -107 -249 -149 -409 -31 -122 -33 -138 -33
-304 0 -197 11 -253 71 -375 108 -222 343 -374 689 -445 314 -65 773 -59 1290
16 241 35 751 132 742 141 -2 2 -91 -8 -198 -21 -341 -43 -468 -51 -834 -50
-377 0 -498 10 -744 60 -678 136 -990 496 -906 1044 17 113 62 276 104 379 17
41 29 76 27 78 -1 2 -28 -50 -59 -114z"/>
<path d="M1308 6463 c7 -3 16 -2 19 1 4 3 -2 6 -13 5 -11 0 -14 -3 -6 -6z"/>
<path d="M7350 6442 c-208 -56 -321 -226 -308 -465 13 -256 229 -407 526 -370
126 16 158 31 172 83 6 23 14 48 17 56 8 22 -13 17 -59 -16 -123 -85 -284 -69
-378 38 -53 59 -80 147 -80 256 0 191 89 328 233 358 72 15 147 -7 211 -63 26
-23 48 -40 50 -38 10 13 26 123 19 129 -46 44 -289 63 -403 32z"/>
<path d="M8198 6441 c-116 -37 -211 -120 -265 -230 -26 -52 -28 -64 -28 -186
0 -125 1 -133 32 -197 60 -128 165 -198 327 -220 284 -38 510 111 549 361 28
184 -56 366 -205 442 -100 51 -298 65 -410 30z m257 -70 c134 -61 194 -239
150 -445 -28 -134 -103 -223 -206 -245 -157 -34 -272 66 -299 260 -26 186 47
376 165 430 52 24 138 24 190 0z"/>
<path d="M13290 6446 c-125 -34 -229 -119 -283 -233 -31 -65 -32 -73 -32 -193
0 -121 1 -128 33 -192 58 -119 150 -187 287 -213 143 -28 247 -16 361 40 87
43 154 111 197 203 30 63 32 73 32 182 0 110 -2 118 -34 188 -53 114 -140 184
-268 217 -69 18 -229 19 -293 1z m266 -92 c142 -87 180 -356 76 -548 -78 -145
-265 -176 -378 -62 -64 63 -88 152 -82 299 8 172 58 275 160 326 63 32 158 26
224 -15z"/>
<path d="M5204 6033 l0 -413 228 0 228 0 0 50 0 51 -62 -5 c-35 -3 -95 -8
-134 -11 l-72 -5 -7 130 c-4 72 -4 239 0 373 l7 242 -94 0 -94 0 0 -412z"/>
<path d="M6065 6333 c-62 -157 -214 -527 -259 -630 l-35 -83 59 0 58 0 39 118
40 117 138 3 c104 2 140 -1 147 -10 4 -7 24 -61 44 -120 l36 -108 104 0 104 0
-14 33 c-68 155 -125 293 -186 453 -40 104 -85 224 -102 267 l-29 77 -49 0
-48 0 -47 -117z m103 -259 c27 -71 48 -132 45 -136 -2 -5 -49 -8 -104 -8 -75
0 -99 3 -99 13 0 7 18 60 41 118 22 57 45 115 50 128 5 13 12 22 14 19 2 -2
26 -62 53 -134z"/>
<path d="M9025 6210 c0 -129 -4 -315 -8 -412 l-8 -178 53 0 53 0 -3 286 c-2
157 0 285 5 283 17 -8 371 -393 478 -521 37 -46 42 -48 91 -48 l51 0 6 388 c4
213 10 398 13 413 5 25 5 25 -50 25 l-55 -1 6 -284 c5 -216 3 -282 -6 -277 -6
4 -125 132 -263 284 l-252 276 -55 1 -56 1 0 -236z"/>
<path d="M9930 6392 l0 -53 33 5 c17 3 66 7 107 8 l75 3 0 -368 0 -367 95 0
95 0 0 368 0 367 75 -3 c41 -1 89 -5 105 -7 l31 -5 0 52 0 53 -308 0 -308 0 0
-53z"/>
<path d="M10725 6033 l0 -413 97 0 97 0 -6 190 c-3 105 -3 190 0 190 3 0 54
-85 114 -190 l108 -190 108 0 c59 0 107 2 107 4 0 3 -37 63 -83 133 -104 160
-157 248 -157 260 0 5 16 15 36 22 44 16 100 64 121 105 10 19 17 57 17 96 1
87 -33 148 -101 182 -46 22 -58 23 -253 23 l-205 0 0 -412z m325 319 c37 -28
50 -60 50 -127 0 -105 -47 -164 -139 -173 l-51 -5 0 160 c0 88 3 163 8 167 12
13 105 -3 132 -22z"/>
<path d="M11695 6258 c-85 -214 -200 -492 -239 -580 l-26 -58 59 0 59 0 23 68
c12 37 30 91 41 120 l19 52 139 0 139 0 19 -52 c11 -29 29 -83 41 -120 l23
-68 104 0 c57 0 104 2 104 5 0 3 -11 27 -24 53 -31 63 -132 311 -227 562 l-77
205 -50 3 -50 3 -77 -193z m140 -198 c25 -68 45 -125 45 -127 0 -2 -47 -3
-105 -3 -80 0 -105 3 -105 13 0 13 64 183 91 240 16 35 15 35 74 -123z"/>
<path d="M12375 6033 l0 -413 230 0 230 0 0 50 0 50 -75 -5 c-41 -3 -103 -8
-138 -11 l-63 -5 3 373 3 373 -95 0 -95 0 0 -412z"/>
<path d="M14085 6033 l0 -413 96 0 96 0 -5 173 c-2 94 -3 181 -1 192 3 13 40
-43 114 -173 l109 -192 108 0 c59 0 108 2 108 5 0 3 -32 53 -70 110 -39 58
-95 145 -125 195 l-54 90 49 21 c52 22 104 73 122 118 15 40 13 143 -5 177
-20 38 -64 79 -102 95 -21 9 -93 13 -235 13 l-205 1 0 -412z m323 321 c35 -23
55 -79 50 -144 -8 -101 -50 -149 -137 -158 l-51 -5 0 160 c0 88 3 163 8 167
11 12 104 -3 130 -20z"/>
<path d="M14878 6033 l2 -413 93 0 92 0 0 413 0 412 -95 0 -95 0 3 -412z"/>
<path d="M15471 6168 c-63 -156 -140 -343 -172 -416 l-57 -133 60 3 60 3 28
85 c15 47 33 100 40 118 l12 33 141 -3 140 -3 40 -117 39 -118 105 0 c80 0
104 3 100 13 -55 122 -149 354 -227 557 l-98 255 -48 3 -49 3 -114 -283z m173
-100 c25 -71 46 -130 46 -133 0 -3 -47 -5 -105 -5 -70 0 -105 4 -105 11 0 24
103 270 110 262 4 -4 28 -65 54 -135z"/>
<path d="M2767 6353 c-94 -181 -178 -418 -212 -603 -23 -123 -24 -319 -2 -420
35 -162 145 -328 281 -424 401 -285 1133 -312 2268 -84 114 23 206 43 204 46
-3 2 -71 -5 -153 -17 -925 -130 -1698 -66 -2103 173 -159 94 -261 199 -331
341 -53 109 -70 179 -76 321 -9 188 34 402 126 629 22 54 39 101 37 102 -2 2
-19 -27 -39 -64z"/>
<path d="M11118 5388 c-59 -64 -44 -77 32 -28 51 33 64 62 33 74 -11 5 -31 -9
-65 -46z"/>
<path d="M15224 5393 c-65 -71 -53 -86 28 -34 55 35 64 47 48 66 -19 23 -29
19 -76 -32z"/>
<path d="M5987 5306 c-99 -27 -147 -91 -147 -194 0 -136 85 -201 250 -189 108
8 110 9 110 76 0 31 3 65 6 76 4 18 0 20 -41 20 l-45 0 1 -63 c1 -34 -2 -66
-6 -70 -3 -4 -26 -7 -50 -7 -108 0 -168 126 -115 242 36 81 123 106 195 58 20
-15 39 -25 40 -23 2 2 6 15 10 29 6 23 3 28 -26 38 -54 19 -131 22 -182 7z"/>
<path d="M12257 5306 c-91 -25 -140 -94 -141 -196 -1 -119 60 -180 188 -188
81 -5 123 8 135 40 5 13 7 25 5 27 -1 2 -23 -7 -48 -19 -102 -49 -186 16 -186
144 0 133 105 211 190 140 35 -30 35 -30 44 9 5 23 3 29 -18 37 -46 17 -120
20 -169 6z"/>
<path d="M6280 5120 l0 -190 105 0 c97 0 105 1 105 20 0 16 -8 19 -62 22 l-63
3 0 65 0 65 63 -2 c59 -1 62 0 62 23 0 23 -3 24 -65 24 -72 0 -72 0 -59 83 l7
38 58 -7 c59 -7 59 -6 59 20 l0 26 -105 0 -105 0 0 -190z"/>
<path d="M6558 5120 l-3 -190 25 0 25 0 -3 125 c-2 76 1 125 7 125 5 0 60 -56
121 -125 84 -93 119 -125 136 -125 24 0 24 1 24 108 0 59 3 144 7 190 l6 82
-26 0 -26 0 -3 -127 -3 -128 -115 127 c-93 103 -120 128 -142 128 l-27 0 -3
-190z"/>
<path d="M6980 5120 l0 -190 105 0 c98 0 105 1 105 20 0 18 -7 20 -60 20 -68
0 -74 8 -68 91 l3 44 63 -2 c59 -1 62 0 62 23 0 23 -3 24 -66 24 l-67 0 7 46
c3 26 6 53 6 61 0 11 12 13 60 7 60 -7 60 -7 60 20 l0 26 -105 0 -105 0 0
-190z"/>
<path d="M7260 5120 l0 -190 43 0 43 0 -4 85 c-3 47 -2 85 1 85 3 0 27 -38 53
-85 l48 -85 48 0 c26 0 48 2 48 4 0 3 -22 40 -50 83 -27 43 -50 83 -50 89 0 6
11 16 26 22 37 17 58 74 44 118 -17 50 -52 64 -160 64 l-90 0 0 -190z m158
133 c33 -44 2 -123 -49 -123 l-29 0 0 68 c0 38 3 72 7 76 11 11 56 -3 71 -21z"/>
<path d="M7700 5286 c-5 -13 -38 -96 -74 -183 -36 -87 -66 -162 -66 -166 0 -4
11 -7 24 -7 19 0 27 9 42 53 l19 52 64 0 64 0 17 -50 17 -50 50 -3 51 -3 -38
88 c-20 48 -54 134 -75 191 -34 90 -41 102 -62 102 -16 0 -27 -8 -33 -24z m38
-156 l21 -60 -49 0 -49 0 21 60 c12 33 25 60 29 60 4 0 16 -27 27 -60z"/>
<path d="M7960 5120 l0 -190 105 0 c98 0 105 1 105 20 0 18 -7 20 -66 20 l-66
0 3 170 4 170 -42 0 -43 0 0 -190z"/>
<path d="M8380 5121 l0 -191 113 0 c141 0 178 17 220 99 34 68 36 130 5 191
-36 70 -69 83 -215 88 l-123 4 0 -191z m215 133 c35 -23 59 -93 52 -154 -12
-97 -55 -140 -142 -140 l-45 0 0 154 c0 114 3 156 13 160 21 9 96 -3 122 -20z"/>
<path d="M8800 5120 l0 -190 105 0 c98 0 105 1 105 20 0 18 -7 20 -60 20 l-60
0 0 71 0 72 60 -6 c59 -7 60 -6 60 18 0 24 -3 25 -60 25 l-60 0 0 60 0 61 63
-7 c62 -6 62 -6 62 20 l0 26 -107 0 -108 0 0 -190z"/>
<path d="M9230 5120 l0 -190 105 0 c98 0 105 1 105 20 0 18 -7 20 -66 20 l-67
0 5 170 5 170 -43 0 -44 0 0 -190z"/>
<path d="M9616 5302 c-2 -4 -27 -63 -54 -132 -28 -69 -61 -151 -75 -182 l-26
-58 29 0 c26 0 31 5 46 55 l18 56 65 -3 64 -3 17 -50 17 -50 50 -3 51 -3 -38
88 c-20 48 -55 134 -76 190 -33 87 -42 103 -61 103 -12 0 -24 -3 -27 -8z m32
-172 l21 -60 -50 0 c-28 0 -49 4 -47 8 2 4 12 31 22 60 11 29 23 52 26 52 3 0
16 -27 28 -60z"/>
<path d="M10015 5120 l0 -190 45 0 45 0 -3 87 c-4 100 -4 100 62 -19 l38 -68
49 0 c27 0 49 2 49 5 0 2 -25 42 -55 87 -47 73 -52 84 -38 93 44 27 63 55 63
94 0 83 -28 101 -162 101 l-93 0 0 -190z m162 132 c18 -23 9 -93 -13 -109 -10
-7 -28 -13 -41 -13 -22 0 -23 4 -23 68 0 38 3 72 7 76 11 11 55 -3 70 -22z"/>
<path d="M10345 5120 l0 -190 108 0 c100 0 107 1 107 20 0 18 -7 20 -65 20
l-65 0 0 71 0 72 64 -6 c62 -6 64 -6 64 18 0 24 -3 25 -65 25 l-64 0 3 58 3
57 63 -3 c61 -3 62 -3 62 22 l0 26 -107 0 -108 0 0 -190z"/>
<path d="M10620 5121 l0 -191 45 0 45 0 -6 80 -7 80 37 0 c48 0 99 22 120 51
9 14 16 43 16 69 0 37 -5 52 -26 71 -23 21 -36 24 -125 27 l-99 4 0 -191z
m141 140 c18 -14 24 -29 24 -60 0 -46 -18 -69 -55 -73 -24 -3 -25 -1 -28 61
-2 35 -1 70 2 77 7 19 30 17 57 -5z"/>
<path d="M10930 5169 c0 -168 11 -201 74 -230 54 -24 141 -25 186 -1 55 29 67
67 75 230 l7 142 -28 0 -29 0 3 -114 c5 -178 -19 -236 -99 -236 -88 0 -104 34
-103 218 l1 132 -43 0 -44 0 0 -141z"/>
<path d="M11355 5120 l0 -190 93 0 c130 0 172 25 172 100 0 43 -15 67 -52 86
l-32 16 27 14 c31 17 47 43 47 78 0 67 -36 86 -162 86 l-93 0 0 -190z m139
149 c46 -21 43 -94 -4 -119 -42 -22 -50 -14 -50 53 0 81 6 88 54 66z m16 -179
c42 -42 15 -130 -41 -130 l-29 0 0 75 c0 73 1 75 25 75 14 0 34 -9 45 -20z"/>
<path d="M11690 5120 l0 -190 105 0 c98 0 105 1 105 20 0 18 -7 20 -60 20 -56
0 -60 2 -66 27 -4 14 -4 91 -1 170 l6 143 -44 0 -45 0 0 -190z"/>
<path d="M11965 5120 l0 -190 43 0 42 0 0 190 0 190 -42 0 -43 0 0 -190z"/>
<path d="M12589 5283 c-6 -16 -39 -98 -75 -184 -35 -85 -64 -158 -64 -162 0
-4 11 -7 24 -7 19 0 27 9 42 53 l19 52 64 0 65 0 17 -50 17 -50 51 -3 50 -3
-38 88 c-21 48 -55 134 -76 191 -34 90 -41 102 -62 102 -16 0 -27 -8 -34 -27z
m34 -135 c8 -24 18 -51 22 -60 6 -16 1 -18 -44 -18 l-50 0 21 60 c12 33 25 60
29 60 4 0 14 -19 22 -42z"/>
<path d="M13000 5121 l0 -191 112 0 c99 0 116 3 152 24 60 35 90 94 90 177 0
80 -22 123 -79 153 -32 17 -62 22 -157 25 l-118 3 0 -191z m184 145 c68 -28
98 -105 76 -196 -17 -71 -63 -110 -130 -110 l-50 0 0 153 c0 85 3 157 7 160
11 12 62 8 97 -7z"/>
<path d="M13420 5120 l0 -190 105 0 c98 0 105 1 105 20 0 18 -7 20 -60 20 -68
0 -74 8 -68 91 l3 44 63 -2 c59 -1 62 0 62 23 0 23 -3 24 -66 24 l-67 0 7 46
c3 26 6 53 6 61 0 11 12 13 60 7 60 -7 60 -7 60 20 l0 26 -105 0 -105 0 0
-190z"/>
<path d="M13700 5120 l0 -190 105 0 c98 0 105 1 105 20 0 18 -7 20 -66 20
l-66 0 3 170 4 170 -42 0 -43 0 0 -190z"/>
<path d="M14115 5121 l0 -191 43 0 42 0 0 80 0 80 28 0 c48 0 101 20 122 47
29 37 27 103 -4 140 -23 27 -29 28 -128 31 l-103 4 0 -191z m153 131 c6 -9 12
-33 12 -53 0 -29 -6 -42 -26 -58 -46 -36 -54 -29 -54 52 0 41 3 77 7 80 10 10
46 -2 61 -21z"/>
<path d="M14420 5120 l0 -190 105 0 c98 0 105 1 105 20 0 18 -7 20 -65 20
l-66 0 3 68 3 67 63 -2 c59 -1 62 0 62 23 0 23 -3 24 -65 24 l-65 0 0 44 c0
74 4 78 71 70 59 -7 59 -6 59 20 l0 26 -105 0 -105 0 0 -190z"/>
<path d="M14695 5120 l0 -190 45 0 45 0 -3 87 c-4 100 -4 100 62 -19 l38 -68
49 0 c27 0 49 2 49 5 0 2 -25 42 -55 87 -47 73 -52 84 -38 93 44 27 63 55 63
94 0 83 -28 101 -162 101 l-93 0 0 -190z m132 154 c28 -8 47 -54 38 -93 -7
-33 -30 -51 -64 -51 -19 0 -21 6 -21 68 0 83 3 88 47 76z"/>
<path d="M15030 5173 c0 -152 10 -188 63 -227 39 -29 149 -34 197 -9 62 32 74
69 79 231 l3 142 -25 0 -25 0 -4 -144 c-3 -128 -5 -148 -24 -173 -17 -23 -30
-29 -70 -31 -43 -2 -53 1 -74 23 -24 25 -25 33 -28 176 l-3 149 -45 0 -44 0 0
-137z"/>
<path d="M5328 4873 c7 -3 16 -2 19 1 4 3 -2 6 -13 5 -11 0 -14 -3 -6 -6z"/>
</g>
</svg>
