<?xml version="1.0" encoding="UTF-8"?>
<svg version="1.1" xmlns="http://www.w3.org/2000/svg" width="1754" height="1240">
<path d="M0 0 C0.75907654 0.00093658 1.51815308 0.00187317 2.30023193 0.00283813 C38.89980576 0.10006279 79.77795483 4.05617912 107.4453125 30.65625 C123.14888176 47.44818544 126.55780778 68.28123709 125.93994141 90.44482422 C124.68186446 117.51998985 113.81491629 143.65191442 102.4375 167.875 C102.00848389 168.79112061 101.57946777 169.70724121 101.13745117 170.65112305 C100.73373291 171.49199463 100.33001465 172.33286621 99.9140625 173.19921875 C99.37773193 174.32009888 99.37773193 174.32009888 98.83056641 175.46362305 C97.8125 177.1875 97.8125 177.1875 95.8125 178.1875 C97.0200649 174.31618898 98.46243556 170.6651692 100.17285156 166.98925781 C112.58163073 140.11492049 119.4086603 107.72195829 108.98828125 79.11328125 C99.34595646 55.11958934 81.1366082 41.02596346 57.8125 31 C25.91756249 18.90076132 -10.29543535 15.97080374 -44.1875 17.1875 C-46.0120874 17.2491333 -46.0120874 17.2491333 -47.87353516 17.31201172 C-104.32875898 19.33215648 -159.92645951 28.94643478 -215.1875 40.1875 C-215.1875 39.5275 -215.1875 38.8675 -215.1875 38.1875 C-145.62193437 17.61927044 -72.98494297 -0.11815744 0 0 Z " fill="#DF1B18" transform="translate(340.1875,555.8125)"/>
<path d="M0 0 C0.66 0.33 1.32 0.66 2 1 C1.58488159 2.01646606 1.58488159 2.01646606 1.16137695 3.0534668 C-10.70307645 32.34051817 -22.0891989 67.07557768 -9.17041016 97.98486328 C0.84376859 121.12331531 19.32847344 135.34197855 42.31958008 144.54052734 C73.5431581 156.51160863 106.74409245 160.23018733 140 161 C140.77601563 161.02191406 141.55203125 161.04382813 142.3515625 161.06640625 C182.16483268 162.07860803 222.66978641 158.00324487 261.87573242 151.30371094 C264 151 264 151 267 151 C267.15855469 150.40832031 267.31710937 149.81664062 267.48046875 149.20703125 C269.40993435 142.67243228 271.84354931 139.15562486 277.5625 135.25 C284.21431919 131.83881067 293.35095743 131.73675305 300.47265625 133.671875 C302.375 134.5 302.375 134.5 305 136 C304.34 138.31 303.68 140.62 303 143 C300.66874453 141.83437227 298.4265835 140.6559501 296.1875 139.3125 C292.20552907 137.67286491 290.13073792 137.87343511 286 139 C281.76409235 141.40676571 279.92231647 144.20133915 278.4375 148.71484375 C277.41918766 154.03370732 278.15735046 159.07394392 280.3125 164 C282.15992627 166.18954225 283.36407327 166.93811152 286 168 C289.02792822 168.25065631 291.95441028 168.08957617 295 168 C295.33 163.71 295.66 159.42 296 155 C298.97 155 301.94 155 305 155 C305 160.28 305 165.56 305 171 C296.45956774 174.4161729 286.76015027 175.28062308 278 172 C272.2985606 168.98791881 269.0437387 165.13121611 267 159 C266.96045766 156.66700175 266.95598268 154.33291811 267 152 C266.12746582 152.24379395 265.25493164 152.48758789 264.35595703 152.73876953 C254.26551534 155.50057305 244.1251443 157.79035508 233.875 159.875 C232.61810364 160.13162415 232.61810364 160.13162415 231.33581543 160.39343262 C189.61468557 168.87506057 147.3940179 175.22456713 104.75 175.25 C103.73076447 175.25067474 102.71152893 175.25134949 101.66140747 175.25204468 C65.66935798 175.21425905 26.84078825 171.77800688 -2 148 C-2.99 147.278125 -3.98 146.55625 -5 145.8125 C-18.81248306 133.95136497 -25.41845589 115.65859402 -27 98 C-29.51810001 63.63217017 -16.86203417 29.39080815 0 0 Z " fill="#DF1B18" transform="translate(316,575)"/>
<path d="M0 0 C0.66 0.33 1.32 0.66 2 1 C1.69296143 1.72888428 1.38592285 2.45776855 1.06958008 3.20874023 C-12.85774787 36.41724407 -25.32706915 71.63933747 -12.53515625 107.3671875 C-2.58520351 130.9128772 16.6555755 144.22936086 39.32714844 153.91748047 C46.71670729 156.9102923 54.26171613 159.11074841 62 161 C62.92167969 161.22526367 63.84335937 161.45052734 64.79296875 161.68261719 C126.11636078 176.18588905 195.1366774 170.98785782 256.58920288 158.85168457 C259.88056863 158.23052008 261.76386197 157.92128732 265 159 C260.29178307 160.67140542 255.54321145 161.86037796 250.66796875 162.91796875 C249.85596512 163.0959903 249.04396149 163.27401184 248.20735168 163.45742798 C245.53527679 164.03988398 242.86172288 164.61498956 240.1875 165.1875 C239.26283936 165.38564301 238.33817871 165.58378601 237.38549805 165.78793335 C68.75406809 201.7433427 68.75406809 201.7433427 3.9375 162.5625 C-13.49254064 150.68084186 -23.89558534 135.31219553 -29 115 C-36.59703769 74.70685074 -18.74624119 34.45642194 0 0 Z " fill="#DF1B18" transform="translate(283,591)"/>
<path d="M0 0 C7.51723983 7.17492472 11.95810907 17.52598341 12.42578125 27.8203125 C12.76904924 42.75247003 10.29620766 53.01496168 0.1875 64.5625 C-11.56306701 75.53880484 -24.92216611 77.1508204 -40.36328125 76.87890625 C-52.8117955 76.36708879 -63.60792532 71.62898728 -72.2109375 62.57421875 C-80.57556587 52.06742946 -81.85523756 39.56372153 -80.8125 26.5625 C-78.77926011 15.64144502 -73.70246554 5.8983024 -64.8828125 -1.0625 C-45.70761458 -13.79772579 -18.61394498 -14.78352433 0 0 Z M-52.27734375 6.58203125 C-54.9004974 9.9660997 -56.44230904 13.52766633 -57.8125 17.5625 C-58.03808594 18.21476563 -58.26367188 18.86703125 -58.49609375 19.5390625 C-62.12381154 32.49877159 -60.4514071 46.72025604 -54.78515625 58.7421875 C-51.59224066 64.03720055 -46.58287049 66.69658248 -40.8125 68.5625 C-32.8314901 69.96088208 -26.42302721 68.13991252 -19.8125 63.5625 C-13.19182149 57.95272079 -9.34532558 48.87007568 -8.61962891 40.27929688 C-8.191062 26.99112555 -7.99239799 16.17081103 -16.1875 5.0625 C-22.12836556 -0.5954672 -28.31889101 -2.84415752 -36.4453125 -2.7109375 C-42.95313461 -1.95920887 -47.90627338 1.91225448 -52.27734375 6.58203125 Z " fill="#1D1D1B" transform="translate(869.8125,603.4375)"/>
<path d="M0 0 C8.49781647 7.73831517 13.76559814 17.29274514 14.37109375 28.85546875 C14.69588571 43.01560599 12.86742234 54.18472182 3 65 C-5.02483269 73.32131666 -15.63689159 77.83460579 -27.13671875 78.3359375 C-42.85228963 78.59174949 -55.79388529 77.21442745 -67.9296875 66.2578125 C-74.42891423 59.53543636 -78.48995682 50.3507916 -79 41 C-79.05027344 40.19304688 -79.10054687 39.38609375 -79.15234375 38.5546875 C-79.61739915 25.49593188 -75.66924184 13.43804368 -66.85546875 3.6953125 C-49.19541811 -12.44039692 -19.40583031 -14.10218316 0 0 Z M-51 9 C-58.98929346 20.88151336 -59.52099754 36.25126265 -56.875 49.875 C-54.84570787 57.73372094 -50.78599937 63.47600042 -44 68 C-38.00608787 70.78036933 -31.93224726 70.98306182 -25.53125 69.3828125 C-17.99560801 66.46662228 -13.21508145 60.89594625 -9.6875 53.75 C-4.65057483 41.21173133 -4.7924824 27.70105125 -9 15 C-12.83344764 7.41021429 -17.78586379 2.30787578 -25.89453125 -0.4609375 C-36.16983047 -3.09171912 -44.60332847 0.90625235 -51 9 Z " fill="#1D1D1B" transform="translate(1375,602)"/>
<path d="M0 0 C45.47379032 0 45.47379032 0 51.27734375 4.9375 C51.82519531 5.618125 52.37304688 6.29875 52.9375 7 C53.50339844 7.680625 54.06929687 8.36125 54.65234375 9.0625 C58.27090492 14.26483722 57.50827745 20.95078251 57 27 C55.35298578 32.91983967 52.0597531 36.52762042 47 40 C44.69413879 41.15061083 42.41477381 42.08238595 40 43 C44.05142832 50.66232202 48.43053121 58.02850165 53.125 65.3125 C53.73214844 66.26189453 54.33929687 67.21128906 54.96484375 68.18945312 C57.40968011 72.00584802 59.8584078 75.81042948 62.4296875 79.54296875 C64 82 64 82 64 84 C56.41 84 48.82 84 41 84 C40.05898437 82.31132813 39.11796875 80.62265625 38.1484375 78.8828125 C36.89070772 76.63016215 35.63289057 74.37756057 34.375 72.125 C33.75753906 71.01640625 33.14007812 69.9078125 32.50390625 68.765625 C31.89160156 67.66992188 31.27929688 66.57421875 30.6484375 65.4453125 C29.81578369 63.95281982 29.81578369 63.95281982 28.96630859 62.43017578 C26.3777284 57.91446288 23.67796946 53.46328243 21 49 C21 60.55 21 72.1 21 84 C14.07 84 7.14 84 0 84 C0 56.28 0 28.56 0 0 Z M20 8 C20 18.56 20 29.12 20 40 C28.83621869 39.34432556 28.83621869 39.34432556 34.625 34.73828125 C38.23950475 30.16880791 38.49120164 24.59969871 38 19 C37.03124653 14.59583506 36.02065103 11.77763888 32.375 9 C28.14847482 7.57386751 28.14847482 7.57386751 20 8 Z " fill="#1D1D1B" transform="translate(1072,595)"/>
<path d="M0 0 C45.31753555 0 45.31753555 0 51.0234375 4.6484375 C51.69246094 5.50308594 51.69246094 5.50308594 52.375 6.375 C52.83648438 6.93960938 53.29796875 7.50421875 53.7734375 8.0859375 C57.46534602 13.84719602 57.61362077 19.336462 57 26 C55.13579152 31.98509039 52.28285508 37.21787867 46.67578125 40.26171875 C44.47116573 41.24808519 42.25436318 42.1359079 40 43 C44.03134966 51.93810815 49.37196731 59.88506797 54.8125 68 C56.13722792 69.97879278 57.46018427 71.9586546 58.7775116 73.94238281 C59.59105226 75.16733636 60.40886607 76.38946517 61.23139954 77.60839844 C64 81.77490504 64 81.77490504 64 84 C56.41 84 48.82 84 41 84 C38.3084375 79.2975 38.3084375 79.2975 35.5625 74.5 C35.01795166 73.54931641 34.47340332 72.59863281 33.91235352 71.61914062 C29.23251931 63.43571759 24.62218017 55.2172092 20 47 C20 59.21 20 71.42 20 84 C13.4 84 6.8 84 0 84 C0 56.28 0 28.56 0 0 Z M20 8 C18.86768781 23.49456178 18.86768781 23.49456178 19 39 C19.9831641 40.21182005 19.9831641 40.21182005 21.85546875 40.0546875 C27.8910343 39.58963555 30.80323738 38.40148274 35 34 C37.97225192 29.89546164 38.26229503 24.53551859 37.75390625 19.62109375 C36.89084324 14.9849942 35.97270068 11.88923686 32 9 C29.11788698 8.03929566 27.30149956 7.89418117 24.3125 7.9375 C23.50425781 7.94652344 22.69601562 7.95554687 21.86328125 7.96484375 C21.24839844 7.97644531 20.63351562 7.98804688 20 8 Z " fill="#1D1D1B" transform="translate(1408,595)"/>
<path d="M0 0 C1.93947983 -0.04560088 3.87926606 -0.07831081 5.8190918 -0.10546875 C7.43934517 -0.13483521 7.43934517 -0.13483521 9.09233093 -0.16479492 C12 0 12 0 14.89453125 1.6875 C15.52746094 2.450625 16.16039062 3.21375 16.8125 4 C17.53308594 4.82886719 18.25367188 5.65773438 18.99609375 6.51171875 C19.98802734 7.74341797 19.98802734 7.74341797 21 9 C22.1214197 10.27399381 23.24625253 11.54499398 24.375 12.8125 C24.931875 13.46089844 25.48875 14.10929688 26.0625 14.77734375 C28.4532275 17.51993235 30.91086986 20.19859764 33.375 22.875 C36.75091046 26.54354663 40.11065003 30.22422825 43.4375 33.9375 C47.07278236 37.98767872 50.74670127 42.00048622 54.4375 46 C54.95820068 46.56452881 55.47890137 47.12905762 56.01538086 47.71069336 C57.98198939 49.83813254 59.95118249 51.95118249 62 54 C62 36.18 62 18.36 62 0 C65.96 0 69.92 0 74 0 C74.04698593 10.23705872 73.86959999 20.44845011 73.5625 30.6796875 C73.51748295 32.22909034 73.47264588 33.77849842 73.42797852 35.32791138 C73.31139471 39.35554284 73.19240856 43.38309965 73.07287598 47.41064453 C72.95074345 51.54064681 72.83094655 55.67071682 72.7109375 59.80078125 C72.47620987 67.86725455 72.23893751 75.93365031 72 84 C70.23626855 84.07150644 68.47170167 84.12261151 66.70703125 84.16503906 C65.72452393 84.19567444 64.7420166 84.22630981 63.72973633 84.25787354 C60.7353188 83.97499602 59.75268886 83.47419721 57.6875 81.359375 C56.75873497 80.18148594 55.86369861 78.97639791 55 77.75 C53.99839686 76.45914716 52.99444093 75.17011688 51.98828125 73.8828125 C51.49408691 73.23086914 50.99989258 72.57892578 50.49072266 71.90722656 C48.2152606 68.99600652 45.71604717 66.31591892 43.1875 63.625 C40.26802545 60.47486604 37.37128941 57.31228292 34.5625 54.0625 C31.00523751 49.95796636 27.3141408 45.98106952 23.61352539 42.00610352 C19.33317659 37.39787985 15.18251697 32.7053316 11 28 C10.67 46.48 10.34 64.96 10 84 C6.04 84 2.08 84 -2 84 C-1.93433838 82.55568604 -1.86867676 81.11137207 -1.80102539 79.62329102 C-1.04859214 62.39747334 -0.69730557 45.17692531 -0.4375 27.9375 C-0.39449261 25.20897448 -0.35057601 22.48046384 -0.30664062 19.75195312 C-0.20129986 13.16801495 -0.09926944 6.58403237 0 0 Z " fill="#1D1D1B" transform="translate(902,595)"/>
<path d="M0 0 C2.57161458 0.03255208 5.14322917 0.06510417 7.71484375 0.09765625 C10.83690824 7.36418805 13.74418521 14.70036083 16.5703125 22.0859375 C16.9164711 22.9904364 17.2626297 23.8949353 17.61927795 24.82684326 C18.34235363 26.71724819 19.0652765 28.60771157 19.78805542 30.49822998 C25.78280185 46.16406722 31.82081689 61.76058799 38.83959961 77.00341797 C39.9436912 79.64523044 40.80940511 82.38134032 41.71484375 85.09765625 C34.45484375 85.09765625 27.19484375 85.09765625 19.71484375 85.09765625 C15.1294779 73.63424162 15.1294779 73.63424162 13.46484375 68.66015625 C13.1296875 67.67144531 12.79453125 66.68273437 12.44921875 65.6640625 C11.71484375 63.09765625 11.71484375 63.09765625 11.71484375 60.09765625 C2.47484375 60.09765625 -6.76515625 60.09765625 -16.28515625 60.09765625 C-16.61515625 61.74765625 -16.94515625 63.39765625 -17.28515625 65.09765625 C-18.20968664 68.37110646 -19.25485391 71.60609182 -20.28515625 74.84765625 C-20.69507813 76.16056641 -20.69507813 76.16056641 -21.11328125 77.5 C-21.37625 78.33144531 -21.63921875 79.16289063 -21.91015625 80.01953125 C-22.14992188 80.7784668 -22.3896875 81.53740234 -22.63671875 82.31933594 C-23.28515625 84.09765625 -23.28515625 84.09765625 -24.28515625 85.09765625 C-26.30479824 85.17009678 -28.32682749 85.18142813 -30.34765625 85.16015625 C-31.45238281 85.15113281 -32.55710937 85.14210938 -33.6953125 85.1328125 C-34.54996094 85.12121094 -35.40460937 85.10960937 -36.28515625 85.09765625 C-35.73414498 81.13152679 -34.90600995 77.79300441 -33.265625 74.14453125 C-32.82968018 73.15622314 -32.39373535 72.16791504 -31.94458008 71.1496582 C-31.45884521 70.05999756 -30.97311035 68.97033691 -30.47265625 67.84765625 C-23.19785554 51.24672015 -16.55496532 34.39597961 -9.87768555 17.54785156 C-9.44946503 16.46986801 -9.02124451 15.39188446 -8.58004761 14.28123474 C-7.764674 12.22804011 -6.95162063 10.17392218 -6.1411438 8.11878967 C-5.77914886 7.2072966 -5.41715393 6.29580353 -5.04418945 5.35668945 C-4.72730667 4.55511917 -4.41042389 3.75354889 -4.0839386 2.9276886 C-2.85938204 0.12219581 -2.85938204 0.12219581 0 0 Z M-2.28515625 26.09765625 C-3.95459001 30.24238075 -5.62024014 34.38861519 -7.28515625 38.53515625 C-7.76210938 39.71916016 -8.2390625 40.90316406 -8.73046875 42.12304688 C-9.18164062 43.24775391 -9.6328125 44.37246094 -10.09765625 45.53125 C-10.51660156 46.57337646 -10.93554688 47.61550293 -11.3671875 48.68920898 C-12.34451506 50.82381802 -12.34451506 50.82381802 -12.28515625 52.09765625 C-5.68515625 52.09765625 0.91484375 52.09765625 7.71484375 52.09765625 C5.22041307 43.22856938 2.00985449 34.69240919 -1.28515625 26.09765625 C-1.61515625 26.09765625 -1.94515625 26.09765625 -2.28515625 26.09765625 Z " fill="#1D1D1B" transform="translate(613.28515625,593.90234375)"/>
<path d="M0 0 C3.3 0 6.6 0 10 0 C12.95135908 6.49655133 15.62247076 13.05098261 18.16015625 19.71875 C18.95695348 21.79626607 19.75408475 23.87365405 20.55151367 25.95092773 C21.1676503 27.55857498 21.1676503 27.55857498 21.79623413 29.19869995 C28.53045854 46.75559373 35.30586357 64.22196403 43.29174805 81.25561523 C44 83 44 83 44 85 C36.74 85 29.48 85 22 85 C20.66080132 81.39791426 19.32842874 77.79355571 18 74.1875 C17.6184375 73.16333984 17.236875 72.13917969 16.84375 71.08398438 C16.30234375 69.60961914 16.30234375 69.60961914 15.75 68.10546875 C15.41484375 67.19949951 15.0796875 66.29353027 14.734375 65.36010742 C14 63 14 63 14 60 C0.635 60.495 0.635 60.495 -13 61 C-15.64 68.92 -18.28 76.84 -21 85 C-25.29 85 -29.58 85 -34 85 C-33.31033377 81.55166883 -32.77640503 79.14381631 -31.45629883 76.04052734 C-30.9829158 74.91740395 -30.9829158 74.91740395 -30.49996948 73.77159119 C-29.98371506 72.56594261 -29.98371506 72.56594261 -29.45703125 71.3359375 C-29.09642609 70.48242203 -28.73582092 69.62890656 -28.36428833 68.74952698 C-27.58781549 66.91205138 -26.80940828 65.07539224 -26.02926636 63.23947144 C-23.97465065 58.40256256 -21.93549173 53.55917032 -19.8984375 48.71484375 C-19.48639572 47.73518143 -19.07435394 46.7555191 -18.64982605 45.74617004 C-14.01553597 34.69841509 -9.57014081 23.57709074 -5.15356445 12.44091797 C-4.87761444 11.74538315 -4.60166443 11.04984833 -4.31735229 10.33323669 C-3.58102537 8.47529617 -2.84694277 6.61646664 -2.11303711 4.75756836 C-1 2 -1 2 0 0 Z M0 26 C-1.66943376 30.1447245 -3.33508389 34.29095894 -5 38.4375 C-5.47695312 39.62150391 -5.95390625 40.80550781 -6.4453125 42.02539062 C-6.89648438 43.15009766 -7.34765625 44.27480469 -7.8125 45.43359375 C-8.23144531 46.47572021 -8.65039062 47.51784668 -9.08203125 48.59155273 C-10.05935881 50.72616177 -10.05935881 50.72616177 -10 52 C-3.4 52 3.2 52 10 52 C8.96706266 46.83531331 7.38315195 42.23308072 5.5625 37.3125 C5.09360352 36.0121582 5.09360352 36.0121582 4.61523438 34.68554688 C4.15793945 33.44321289 4.15793945 33.44321289 3.69140625 32.17578125 C3.41498291 31.42208252 3.13855957 30.66838379 2.85375977 29.8918457 C2.05070166 27.81493092 2.05070166 27.81493092 0 26 Z " fill="#1D1D1B" transform="translate(1558,594)"/>
<path d="M0 0 C3.3 0 6.6 0 10 0 C13.17697898 7.41754243 16.15487409 14.90395251 19.07421875 22.42578125 C19.62682625 23.8492688 19.62682625 23.8492688 20.19059753 25.30151367 C20.96084186 27.28635547 21.73097621 29.27123994 22.50100708 31.25616455 C28.75830059 47.37458183 35.02125421 63.45204322 42.25415039 79.16455078 C43 81 43 81 44 85 C36.74 85 29.48 85 22 85 C17.41463415 73.53658537 17.41463415 73.53658537 15.75 68.5625 C15.41484375 67.57378906 15.0796875 66.58507812 14.734375 65.56640625 C14 63 14 63 14 60 C4.76 60 -4.48 60 -14 60 C-14.33 61.98 -14.66 63.96 -15 66 C-15.42159654 67.50685842 -15.87833826 69.00447093 -16.375 70.48828125 C-16.63796875 71.27654297 -16.9009375 72.06480469 -17.171875 72.87695312 C-17.44515625 73.68068359 -17.7184375 74.48441406 -18 75.3125 C-18.27328125 76.13556641 -18.5465625 76.95863281 -18.828125 77.80664062 C-20.86634317 83.86634317 -20.86634317 83.86634317 -22 85 C-24.01964199 85.07244053 -26.04167124 85.08377188 -28.0625 85.0625 C-29.16722656 85.05347656 -30.27195312 85.04445313 -31.41015625 85.03515625 C-32.26480469 85.02355469 -33.11945313 85.01195312 -34 85 C-33.43278112 79.04018983 -31.02264547 74.10591537 -28.58984375 68.71875 C-24.85318725 60.2877014 -21.23104888 51.82273241 -17.75390625 43.28125 C-17.32556488 42.22953613 -16.89722351 41.17782227 -16.4559021 40.09423828 C-15.15602892 36.89699595 -13.85908288 33.69857788 -12.5625 30.5 C-11.23468063 27.23111233 -9.90607226 23.9625472 -8.57688904 20.69421387 C-7.76120749 18.68784679 -6.94642009 16.68111588 -6.13270569 14.6739502 C-4.1378198 9.76008469 -2.10935523 4.86587521 0 0 Z M0 26 C-1.66943376 30.1447245 -3.33508389 34.29095894 -5 38.4375 C-5.47695312 39.62150391 -5.95390625 40.80550781 -6.4453125 42.02539062 C-6.89648438 43.15009766 -7.34765625 44.27480469 -7.8125 45.43359375 C-8.23144531 46.47572021 -8.65039062 47.51784668 -9.08203125 48.59155273 C-10.05935881 50.72616177 -10.05935881 50.72616177 -10 52 C-3.4 52 3.2 52 10 52 C7.77006463 42.95637323 4.57520254 34.57354396 1 26 C0.67 26 0.34 26 0 26 Z " fill="#1D1D1B" transform="translate(1177,594)"/>
<path d="M0 0 C-0.99 4.29 -1.98 8.58 -3 13 C-6.86810875 12.03297281 -7.72902194 11.62085457 -10.4375 9.0625 C-15.68243562 4.10962576 -20.84393951 3.48213035 -27.86328125 3.62890625 C-34.67458734 4.43472702 -40.05307716 7.3607301 -44.375 12.6875 C-51.43348254 23.26522596 -53.61054924 35.45083796 -51.50390625 47.94140625 C-49.31689514 56.82536665 -45.67753649 63.73110241 -38 69 C-31.21650471 72.70552166 -23.67856373 73.29590899 -16.25 71.23828125 C-11.46905607 69.43831277 -7.96050312 67.24041164 -4 64 C-2.515 64.495 -2.515 64.495 -1 65 C-2.15517241 75.15517241 -2.15517241 75.15517241 -5.0625 78.0625 C-19.43188224 82.64847306 -38.29183043 84.07447336 -52 77 C-61.95916711 71.73220903 -68.92253464 64.30056178 -72.32421875 53.49609375 C-76.09778743 39.55788343 -73.85081519 25.69008507 -66.90625 13.13671875 C-60.68881464 2.90597983 -51.04434652 -1.89482908 -39.625 -4.875 C-27.16352198 -7.34951466 -11.02486999 -7.34991333 0 0 Z " fill="#1D1D1B" transform="translate(777,599)"/>
<path d="M0 0 C20.79 0 41.58 0 63 0 C63 3.63 63 7.26 63 11 C56.07 10.67 49.14 10.34 42 10 C42.33 34.42 42.66 58.84 43 84 C36.07 84 29.14 84 22 84 C22 59.91 22 35.82 22 11 C14.74 11 7.48 11 0 11 C0 7.37 0 3.74 0 0 Z " fill="#1D1D1B" transform="translate(992,595)"/>
<path d="M0 0 C6.93 0 13.86 0 21 0 C20.67 24.42 20.34 48.84 20 74 C29.24 73.34 38.48 72.68 48 72 C48 75.96 48 79.92 48 84 C32.16 84 16.32 84 0 84 C0 56.28 0 28.56 0 0 Z " fill="#1D1D1B" transform="translate(1236,595)"/>
<path d="M0 0 C6.93 0 13.86 0 21 0 C20.67 24.42 20.34 48.84 20 74 C29.24 73.34 38.48 72.68 48 72 C48 75.96 48 79.92 48 84 C32.16 84 16.32 84 0 84 C0 56.28 0 28.56 0 0 Z " fill="#1D1D1B" transform="translate(519,595)"/>
<path d="M0 0 C6.93 0 13.86 0 21 0 C21 27.72 21 55.44 21 84 C14.07 84 7.14 84 0 84 C0 56.28 0 28.56 0 0 Z " fill="#1D1D1B" transform="translate(1487,595)"/>
<path d="M0 0 C1.65 0 3.3 0 5 0 C6.98107034 4.8907555 8.95640224 9.78377476 10.92651367 14.67895508 C11.59715105 16.34299736 12.26933647 18.00641665 12.94311523 19.66918945 C13.91279828 22.06298265 14.87684351 24.45898063 15.83984375 26.85546875 C16.14091537 27.5952446 16.441987 28.33502045 16.75218201 29.09721375 C18.19970401 32.71504332 19.41093043 36.12279067 20 40 C16.7 40 13.4 40 10 40 C8.68 36.7 7.36 33.4 6 30 C4.576875 29.814375 3.15375 29.62875 1.6875 29.4375 C0.88699219 29.33308594 0.08648438 29.22867188 -0.73828125 29.12109375 C-3.16817116 28.85244822 -3.16817116 28.85244822 -6 30 C-7.24498609 32.32269959 -7.24498609 32.32269959 -8.1875 35.0625 C-8.785625 36.691875 -9.38375 38.32125 -10 40 C-15.61 40 -21.22 40 -27 40 C-29.64 35.38 -32.28 30.76 -35 26 C-35.33 30.62 -35.66 35.24 -36 40 C-39.3 40 -42.6 40 -46 40 C-46 27.13 -46 14.26 -46 1 C-42.4525 0.9175 -38.905 0.835 -35.25 0.75 C-34.13786133 0.71358398 -33.02572266 0.67716797 -31.87988281 0.63964844 C-24.61801128 0.55751855 -24.61801128 0.55751855 -21.359375 2.890625 C-18.84307549 6.79522769 -18.68242003 9.31569549 -19 14 C-20.71629111 17.77584044 -22.6852883 19.6166949 -26 22 C-24.52235475 24.31348499 -23.04296381 26.62581979 -21.5625 28.9375 C-20.93118164 29.9265332 -20.93118164 29.9265332 -20.28710938 30.93554688 C-18.35604912 34.13128813 -18.35604912 34.13128813 -16 37 C-15.43285278 35.6385083 -15.43285278 35.6385083 -14.85424805 34.24951172 C-13.44182626 30.86043735 -12.02661859 27.4725321 -10.6105957 24.08496094 C-9.99981681 22.62271007 -9.38977913 21.16014936 -8.78051758 19.69726562 C-7.9012325 17.58640627 -7.01922803 15.47670057 -6.13671875 13.3671875 C-5.86784348 12.72006805 -5.5989682 12.07294861 -5.32194519 11.40621948 C-3.69351979 7.52250547 -1.92344822 3.74606037 0 0 Z M-36 5 C-36 9.62 -36 14.24 -36 19 C-31.13867505 18.50847518 -31.13867505 18.50847518 -29 16 C-27.70145789 11.99616182 -28.13229747 9.73540507 -30 6 C-30.33 5.67 -30.66 5.34 -31 5 C-32.65 5 -34.3 5 -36 5 Z M0 14 C-0.67154933 15.28913487 -1.33708859 16.58140204 -2 17.875 C-2.37125 18.59429688 -2.7425 19.31359375 -3.125 20.0546875 C-4.13673746 21.94848977 -4.13673746 21.94848977 -4 24 C-1.36 24 1.28 24 4 24 C3.01 20.7 2.02 17.4 1 14 C0.67 14 0.34 14 0 14 Z " fill="#1D1D1B" transform="translate(771,708)"/>
<path d="M0 0 C-0.33 2.31 -0.66 4.62 -1 7 C-1.556875 6.71125 -2.11375 6.4225 -2.6875 6.125 C-3.450625 5.75375 -4.21375 5.3825 -5 5 C-5.78375 4.608125 -6.5675 4.21625 -7.375 3.8125 C-10.75993067 2.76478336 -12.61809468 2.94315459 -16 4 C-20.25488828 7.48127223 -22.56992784 10.55280622 -23.25390625 16.03515625 C-23.55347 21.6688874 -22.5160589 26.47470198 -19 31 C-15.29303802 33.31122326 -12.34356131 33.37444494 -8 33 C-5.98473831 32.03112419 -3.98166034 31.0358679 -2 30 C-1.01 30.33 -0.02 30.66 1 31 C1.37286133 30.03586182 1.74572266 29.07172363 2.12988281 28.07836914 C3.51575869 24.50701068 4.92195485 20.94395256 6.33447266 17.38305664 C6.94325243 15.84000285 7.54647936 14.29474637 8.14404297 12.74731445 C9.00342623 10.52474696 9.88239631 8.31083743 10.765625 6.09765625 C11.02933899 5.4028566 11.29305298 4.70805695 11.5647583 3.99220276 C13.49821768 -0.77205117 13.49821768 -0.77205117 16.07714844 -1.94360352 C17.38433863 -1.98194289 18.69224769 -2 20 -2 C21.98107034 2.8907555 23.95640224 7.78377476 25.92651367 12.67895508 C26.59715105 14.34299736 27.26933647 16.00641665 27.94311523 17.66918945 C28.91279828 20.06298265 29.87684351 22.45898063 30.83984375 24.85546875 C31.14091537 25.5952446 31.441987 26.33502045 31.75218201 27.09721375 C33.19970401 30.71504332 34.41093043 34.12279067 35 38 C31.7 38 28.4 38 25 38 C23.68 34.7 22.36 31.4 21 28 C19.576875 27.814375 18.15375 27.62875 16.6875 27.4375 C15.88699219 27.33308594 15.08648438 27.22867188 14.26171875 27.12109375 C11.83182884 26.85244822 11.83182884 26.85244822 9 28 C7.75501391 30.32269959 7.75501391 30.32269959 6.8125 33.0625 C6.46832031 33.98160156 6.12414063 34.90070312 5.76953125 35.84765625 C5.38861328 36.91306641 5.38861328 36.91306641 5 38 C2 38 -1 38 -4 38 C-5.70846433 38.20725633 -7.41678103 38.41573101 -9.125 38.625 C-16.82771336 39.29480116 -22.34920214 38.71363079 -28.4375 33.6875 C-32.18813225 30.3157195 -33.74079561 27.18515328 -34.3359375 22.16796875 C-34.43390941 14.69271207 -33.75852565 9.12804362 -28.609375 3.47265625 C-21.03087551 -3.40782355 -9.19833338 -4.08814817 0 0 Z M15 12 C14.32845067 13.28913487 13.66291141 14.58140204 13 15.875 C12.62875 16.59429688 12.2575 17.31359375 11.875 18.0546875 C10.86326254 19.94848977 10.86326254 19.94848977 11 22 C13.64 22 16.28 22 19 22 C18.01 18.7 17.02 15.4 16 12 C15.67 12 15.34 12 15 12 Z M-1 33 C0 35 0 35 0 35 Z " fill="#1D1D1B" transform="translate(1245,710)"/>
<path d="M0 0 C6.001875 -0.0928125 6.001875 -0.0928125 12.125 -0.1875 C13.37555176 -0.21481201 14.62610352 -0.24212402 15.91455078 -0.27026367 C22.56667023 -0.3200983 27.50830271 -0.18482603 32.64453125 4.5 C37.53352832 10.77884573 37.69918639 16.24001581 37 24 C35.29727273 29.95468051 32.00783999 33.52517225 27 37 C23.4218151 38.69896231 20.64781895 39.24149496 16.69921875 39.1953125 C15.37796997 39.18781982 15.37796997 39.18781982 14.0300293 39.18017578 C12.37547729 39.15286377 12.37547729 39.15286377 10.6875 39.125 C7.160625 39.08375 3.63375 39.0425 0 39 C0 26.13 0 13.26 0 0 Z M10 4 C10 14.23 10 24.46 10 35 C17.21812222 35.15636744 17.21812222 35.15636744 23 32 C27.16061594 26.85397502 27.62036909 22.43051908 27.390625 15.8828125 C26.81455185 11.63139265 25.64427403 9.3787946 23 6 C18.40371521 3.32917961 18.40371521 3.32917961 10 4 Z " fill="#1D1D1B" transform="translate(1299,709)"/>
<path d="M0 0 C3.96 -0.0825 7.92 -0.165 12 -0.25 C13.84851563 -0.30462402 13.84851563 -0.30462402 15.734375 -0.36035156 C22.66129533 -0.42988995 27.14634365 0.2115355 33 4 C37.69871338 9.40352039 37.44131372 14.61108254 37.43359375 21.59765625 C36.63608634 27.85557473 33.76844078 31.9901748 29 36 C22.85171538 39.39495769 17.47951228 39.36164535 10.5625 39.1875 C5.3340625 39.0946875 5.3340625 39.0946875 0 39 C0 26.13 0 13.26 0 0 Z M10 4 C10 14.23 10 24.46 10 35 C17.20470643 35.12111504 17.20470643 35.12111504 23 32 C26.68470223 27.71777849 28.08420672 23.61027249 28 18 C27.39220847 12.12829968 25.65626637 8.84141975 21 5 C18.03103721 3.32917961 18.03103721 3.32917961 10 4 Z " fill="#1D1D1B" transform="translate(837,709)"/>
<path d="M0 0 C3.361875 -0.0825 6.72375 -0.165 10.1875 -0.25 C11.23832764 -0.28641602 12.28915527 -0.32283203 13.37182617 -0.36035156 C17.74859079 -0.41239095 20.29968768 -0.42528377 24.11328125 1.890625 C26.58319992 4.65202475 26.96649303 5.55603258 27.25 9.3125 C26.98240528 13.25952206 26.39940349 14.91505265 24 18 C22.68441297 19.02323436 21.35319331 20.02704283 20 21 C20.45439453 21.7113208 20.45439453 21.7113208 20.91796875 22.43701172 C22.28331246 24.58007621 23.64172139 26.72745138 25 28.875 C25.47695312 29.62136719 25.95390625 30.36773438 26.4453125 31.13671875 C26.89648438 31.85214844 27.34765625 32.56757812 27.8125 33.3046875 C28.23144531 33.96452637 28.65039062 34.62436523 29.08203125 35.30419922 C30 37 30 37 30 39 C26.07730584 39.84366768 22.88240803 40.12452448 19 39 C15.54710348 35.02084553 13.26892989 30.73289673 11 26 C10.67 30.29 10.34 34.58 10 39 C6.7 39 3.4 39 0 39 C0 26.13 0 13.26 0 0 Z M10 4 C10 8.62 10 13.24 10 18 C14.86132495 17.50847518 14.86132495 17.50847518 17 15 C17.50966413 9.11663097 17.50966413 9.11663097 15 4 C13.35 4 11.7 4 10 4 Z " fill="#1D1D1B" transform="translate(1469,709)"/>
<path d="M0 0 C3.3825 -0.04125 6.765 -0.0825 10.25 -0.125 C11.30993164 -0.14320801 12.36986328 -0.16141602 13.46191406 -0.18017578 C14.30463867 -0.1851709 15.14736328 -0.19016602 16.015625 -0.1953125 C16.87446289 -0.20578613 17.73330078 -0.21625977 18.61816406 -0.22705078 C21.22475384 0.02142487 22.79976667 0.59770016 25 2 C26.68083261 4.88142734 27.01413715 6.6607084 26.875 10 C25.8756701 13.42627394 24.38728256 15.38169009 22 18 C22.804375 18.70125 23.60875 19.4025 24.4375 20.125 C27.32826999 23.36830292 28 24.69774878 28 29 C27 32.6875 27 32.6875 25 36 C18 39 18 39 0 39 C0 26.13 0 13.26 0 0 Z M10 4 C9.80426392 5.43640171 9.61872184 6.87419504 9.4375 8.3125 C9.33308594 9.11300781 9.22867187 9.91351562 9.12109375 10.73828125 C8.85244822 13.16817116 8.85244822 13.16817116 10 16 C13.93075644 15.42547254 13.93075644 15.42547254 17 13 C17.44416897 8.82731088 17.44416897 8.82731088 15.75 5.125 C13.78595012 3.63949494 13.78595012 3.63949494 10 4 Z M10 21 C8.86983399 26.02296004 9.22083908 29.97874074 10 35 C12.94563014 34.6815535 14.61076606 34.33733608 16.875 32.375 C18.49571141 28.95349813 17.86989425 26.61340687 17 23 C15.16116119 20.71271266 15.16116119 20.71271266 12.375 20.875 C11.199375 20.936875 11.199375 20.936875 10 21 Z " fill="#1D1D1B" transform="translate(1135,709)"/>
<path d="M0 0 C3.361875 -0.0825 6.72375 -0.165 10.1875 -0.25 C11.23832764 -0.28641602 12.28915527 -0.32283203 13.37182617 -0.36035156 C17.74859079 -0.41239095 20.29968768 -0.42528377 24.11328125 1.890625 C26.58319992 4.65202475 26.96649303 5.55603258 27.25 9.3125 C26.98240528 13.25952206 26.39940349 14.91505265 24 18 C22.68441297 19.02323436 21.35319331 20.02704283 20 21 C20.45439453 21.7113208 20.45439453 21.7113208 20.91796875 22.43701172 C22.28331246 24.58007621 23.64172139 26.72745138 25 28.875 C25.47695312 29.62136719 25.95390625 30.36773438 26.4453125 31.13671875 C26.89648438 31.85214844 27.34765625 32.56757812 27.8125 33.3046875 C28.23144531 33.96452637 28.65039062 34.62436523 29.08203125 35.30419922 C30 37 30 37 30 39 C26.37 39 22.74 39 19 39 C16.36 34.38 13.72 29.76 11 25 C10.67 29.62 10.34 34.24 10 39 C6.7 39 3.4 39 0 39 C0 26.13 0 13.26 0 0 Z M10 4 C10 8.62 10 13.24 10 18 C14.86132495 17.50847518 14.86132495 17.50847518 17 15 C17.50966413 9.11663097 17.50966413 9.11663097 15 4 C13.35 4 11.7 4 10 4 Z " fill="#1D1D1B" transform="translate(1001,709)"/>
<path d="M0 0 C7 0 7 0 8.828125 1.328125 C9.53195312 2.27945313 9.53195312 2.27945313 10.25 3.25 C13.26638529 7.08903583 16.4205635 10.68415381 19.75 14.25 C22.6821895 17.39835091 25.41092766 20.54790355 28 24 C28 16.08 28 8.16 28 0 C29.98 0 31.96 0 34 0 C34 12.87 34 25.74 34 39 C28 39 28 39 26.23657227 37.84179688 C25.76791748 37.30619141 25.2992627 36.77058594 24.81640625 36.21875 C24.28442627 35.62739258 23.75244629 35.03603516 23.2043457 34.42675781 C22.66253662 33.79092773 22.12072754 33.15509766 21.5625 32.5 C20.9955542 31.8615918 20.4286084 31.22318359 19.84448242 30.56542969 C18.21388272 28.72338239 16.60526906 26.86411609 15 25 C13.84757813 23.69289063 13.84757813 23.69289063 12.671875 22.359375 C11.53006016 21.06403884 10.39445207 19.76315937 9.26953125 18.453125 C8.22662089 17.25939375 7.12086045 16.12086045 6 15 C5.67 22.92 5.34 30.84 5 39 C3.02 39 1.04 39 -1 39 C-0.67 26.13 -0.34 13.26 0 0 Z " fill="#1D1D1B" transform="translate(656,709)"/>
<path d="M0 0 C-0.66 2.31 -1.32 4.62 -2 7 C-4.33125547 5.83437227 -6.5734165 4.6559501 -8.8125 3.3125 C-12.79447093 1.67286491 -14.86926208 1.87343511 -19 3 C-23.23590765 5.40676571 -25.07768353 8.20133915 -26.5625 12.71484375 C-27.58081234 18.03370732 -26.84264954 23.07394392 -24.6875 28 C-22.84007373 30.18954225 -21.63592673 30.93811152 -19 32 C-15.97207178 32.25065631 -13.04558972 32.08957617 -10 32 C-9.67 27.71 -9.34 23.42 -9 19 C-6.03 19 -3.06 19 0 19 C0 24.28 0 29.56 0 35 C-8.54043226 38.4161729 -18.23984973 39.28062308 -27 36 C-32.7014394 32.98791881 -35.9562613 29.13121611 -38 23 C-38.97645911 15.39756837 -37.58695446 9.2039384 -33 3 C-24.13950623 -4.64985205 -10.13752692 -5.79287252 0 0 Z " fill="#1D1D1B" transform="translate(621,711)"/>
<path d="M0 0 C3.63 0 7.26 0 11 0 C10.98428955 0.78648926 10.9685791 1.57297852 10.95239258 2.38330078 C10.88984085 5.96379338 10.85094449 9.54417076 10.8125 13.125 C10.78736328 14.3625 10.76222656 15.6 10.73632812 16.875 C10.72666016 18.07382812 10.71699219 19.27265625 10.70703125 20.5078125 C10.6913208 21.60754395 10.67561035 22.70727539 10.65942383 23.84033203 C11.052655 27.48850248 12.1004178 29.87769823 14 33 C16.95892306 34.31870972 19.79628134 34.35918726 23 34 C26.07049877 31.85065086 26.81691629 30.54925112 28 27 C28.15029988 24.93637009 28.24844448 22.86876085 28.31640625 20.80078125 C28.35830078 19.59228516 28.40019531 18.38378906 28.44335938 17.13867188 C28.48267578 15.87603516 28.52199219 14.61339844 28.5625 13.3125 C28.60568359 12.03826172 28.64886719 10.76402344 28.69335938 9.45117188 C28.7995486 6.30089148 28.90159533 3.15053161 29 0 C31.31 0 33.62 0 36 0 C35.91871319 4.35490726 35.8059014 8.70845619 35.6875 13.0625 C35.66494141 14.29162109 35.64238281 15.52074219 35.61914062 16.78710938 C35.39124907 24.4732701 34.9237586 29.99336784 30.3125 36.3125 C24.78160585 40.3485579 18.79315126 40.3428471 12.26171875 39.47265625 C6.89503199 38.35112068 3.98301921 35.45426998 1 31 C0.45410156 27.58666992 0.45410156 27.58666992 0.390625 23.73046875 C0.37408875 23.04946609 0.35755249 22.36846344 0.34051514 21.66682434 C0.29220697 19.50695629 0.2707049 17.34779125 0.25 15.1875 C0.22182556 13.71676183 0.19189606 12.24605617 0.16015625 10.77539062 C0.08645604 7.18374586 0.03677515 3.59223429 0 0 Z " fill="#1D1D1B" transform="translate(1092,709)"/>
<path d="M0 0 C3.3 0 6.6 0 10 0 C9.98428955 1.12643921 9.98428955 1.12643921 9.96826172 2.27563477 C9.92648109 5.70455529 9.90060378 9.13342207 9.875 12.5625 C9.85824219 13.74392578 9.84148437 14.92535156 9.82421875 16.14257812 C9.7905415 22.15396759 9.88961106 27.34183122 12 33 C13.58013217 33.25028811 15.16442306 33.47440946 16.75 33.6875 C18.07257813 33.87892578 18.07257813 33.87892578 19.421875 34.07421875 C22.00901159 34.16321344 22.00901159 34.16321344 24.203125 33.01953125 C29.35504473 27.22922146 28.24284912 18.2431883 28.125 11 C28.11597656 9.93910156 28.10695313 8.87820313 28.09765625 7.78515625 C28.07427524 5.18986362 28.04150556 2.59505535 28 0 C30.31 0 32.62 0 35 0 C34.91875308 4.52154847 34.80593693 9.04178484 34.6875 13.5625 C34.66494141 14.83931641 34.64238281 16.11613281 34.61914062 17.43164062 C34.27613309 29.43690444 34.27613309 29.43690444 31 35 C26.23932115 39.4123365 21.27966873 40.08735242 15 40 C9.7413453 39.40554338 5.7820353 37.7820353 2 34 C-0.36243177 30.41980928 -0.23106292 27.26542489 -0.1953125 23.046875 C-0.1924826 22.38665344 -0.18965271 21.72643188 -0.18673706 21.04620361 C-0.17558415 18.94728103 -0.15048946 16.84879258 -0.125 14.75 C-0.11496384 13.32292285 -0.1058391 11.89583898 -0.09765625 10.46875 C-0.07566111 6.97902672 -0.04116536 3.48955577 0 0 Z " fill="#1D1D1B" transform="translate(1503,709)"/>
<path d="M0 0 C5.0428125 -0.1546875 5.0428125 -0.1546875 10.1875 -0.3125 C11.76374146 -0.38078003 11.76374146 -0.38078003 13.37182617 -0.45043945 C18.01784397 -0.51949044 20.28283082 -0.53180299 24.11328125 2.30859375 C26.50814063 5.72486313 27 7.8291983 27 12 C25.81066305 16.19765982 24.90393834 18.33280742 21.375 20.9375 C17.13870185 22.27114942 13.39997394 22.26399844 9 22 C9.165 22.94875 9.33 23.8975 9.5 24.875 C10.18714469 29.5882319 10.06514458 34.24444585 10 39 C6.7 39 3.4 39 0 39 C0 26.13 0 13.26 0 0 Z M10 4 C8.61773984 6.76452033 8.90474613 9.0461363 8.9375 12.125 C8.94652344 13.22070312 8.95554687 14.31640625 8.96484375 15.4453125 C8.97644531 16.28835938 8.98804688 17.13140625 9 18 C13.20780475 17.76277412 13.20780475 17.76277412 16.4375 15.375 C17.23478494 12.00868583 16.74482382 9.35170717 16 6 C15.34 5.34 14.68 4.68 14 4 C12.68 4 11.36 4 10 4 Z " fill="#1D1D1B" transform="translate(1411,709)"/>
<path d="M0 0 C3.361875 -0.0825 6.72375 -0.165 10.1875 -0.25 C11.23832764 -0.28641602 12.28915527 -0.32283203 13.37182617 -0.36035156 C17.74859079 -0.41239095 20.29968768 -0.42528377 24.11328125 1.890625 C27.08256804 5.21032452 27.287487 7.51329755 27.21484375 11.96875 C26.78450651 16.03739304 24.89946424 18.23280991 21.875 20.8125 C17.77621472 22.50547653 14.41798924 22.19782041 10 22 C10 27.61 10 33.22 10 39 C6.7 39 3.4 39 0 39 C0 26.13 0 13.26 0 0 Z M10 4 C10 8.62 10 13.24 10 18 C11.65 17.67 13.3 17.34 15 17 C17.46324069 13.30513897 17.38991688 11.36706908 17 7 C15.89350331 4.97521537 15.89350331 4.97521537 14 4 C12.68 4 11.36 4 10 4 Z " fill="#1D1D1B" transform="translate(1061,709)"/>
<path d="M0 0 C1.2065625 0.0309375 1.2065625 0.0309375 2.4375 0.0625 C4.41857034 4.9532555 6.39390224 9.84627476 8.36401367 14.74145508 C9.03465105 16.40549736 9.70683647 18.06891665 10.38061523 19.73168945 C11.35029828 22.12548265 12.31434351 24.52148063 13.27734375 26.91796875 C13.57841537 27.6577446 13.879487 28.39752045 14.18968201 29.15971375 C15.63720401 32.77754332 16.84843043 36.18529067 17.4375 40.0625 C14.1375 40.0625 10.8375 40.0625 7.4375 40.0625 C6.1175 36.7625 4.7975 33.4625 3.4375 30.0625 C2.014375 29.876875 0.59125 29.69125 -0.875 29.5 C-1.67550781 29.39558594 -2.47601562 29.29117188 -3.30078125 29.18359375 C-5.73067116 28.91494822 -5.73067116 28.91494822 -8.5625 30.0625 C-9.80748609 32.38519959 -9.80748609 32.38519959 -10.75 35.125 C-11.09417969 36.04410156 -11.43835938 36.96320312 -11.79296875 37.91015625 C-12.04691406 38.62042969 -12.30085937 39.33070313 -12.5625 40.0625 C-14.5425 40.0625 -16.5225 40.0625 -18.5625 40.0625 C-17.86844027 35.4910489 -16.20499903 31.41222371 -14.4375 27.171875 C-13.97706299 26.05404633 -13.97706299 26.05404633 -13.50732422 24.91363525 C-12.86055406 23.34615472 -12.21158437 21.77958014 -11.56054688 20.21386719 C-10.56098118 17.80884562 -9.56903531 15.40078633 -8.578125 12.9921875 C-7.94836193 11.46856588 -7.31816869 9.94512198 -6.6875 8.421875 C-6.38956543 7.69901306 -6.09163086 6.97615112 -5.78466797 6.23138428 C-3.21990812 0.07853434 -3.21990812 0.07853434 0 0 Z M-2.5625 14.0625 C-3.23404933 15.35163487 -3.89958859 16.64390204 -4.5625 17.9375 C-4.93375 18.65679688 -5.305 19.37609375 -5.6875 20.1171875 C-6.69923746 22.01098977 -6.69923746 22.01098977 -6.5625 24.0625 C-3.9225 24.0625 -1.2825 24.0625 1.4375 24.0625 C0.4475 20.7625 -0.5425 17.4625 -1.5625 14.0625 C-1.8925 14.0625 -2.2225 14.0625 -2.5625 14.0625 Z " fill="#1D1D1B" transform="translate(964.5625,707.9375)"/>
<path d="M0 0 C7.26 0 14.52 0 22 0 C22 1.65 22 3.3 22 5 C18.04 5 14.08 5 10 5 C10 8.63 10 12.26 10 16 C15.94 15.505 15.94 15.505 22 15 C22 16.98 22 18.96 22 21 C18.04 21 14.08 21 10 21 C10 25.29 10 29.58 10 34 C15.94 33.505 15.94 33.505 22 33 C22 34.98 22 36.96 22 39 C14.74 39 7.48 39 0 39 C0 26.13 0 13.26 0 0 Z " fill="#1D1D1B" transform="translate(1034,709)"/>
<path d="M0 0 C7.59 0 15.18 0 23 0 C23 1.65 23 3.3 23 5 C18.71 5 14.42 5 10 5 C10 8.63 10 12.26 10 16 C15.94 15.505 15.94 15.505 22 15 C22 16.98 22 18.96 22 21 C18.04 21 14.08 21 10 21 C10 25.29 10 29.58 10 34 C16.435 33.505 16.435 33.505 23 33 C23 34.98 23 36.96 23 39 C15.41 39 7.82 39 0 39 C0 26.13 0 13.26 0 0 Z " fill="#1D1D1B" transform="translate(1441,709)"/>
<path d="M0 0 C7.59 0 15.18 0 23 0 C23 1.65 23 3.3 23 5 C18.71 5 14.42 5 10 5 C10 8.63 10 12.26 10 16 C16.435 15.505 16.435 15.505 23 15 C23 16.98 23 18.96 23 21 C18.71 21 14.42 21 10 21 C10 25.29 10 29.58 10 34 C16.435 33.505 16.435 33.505 23 33 C23 34.98 23 36.96 23 39 C15.41 39 7.82 39 0 39 C0 26.13 0 13.26 0 0 Z " fill="#1D1D1B" transform="translate(627,709)"/>
<path d="M0 0 C7.59 0 15.18 0 23 0 C23 1.65 23 3.3 23 5 C18.71 5 14.42 5 10 5 C10 8.63 10 12.26 10 16 C16.435 15.505 16.435 15.505 23 15 C23 16.98 23 18.96 23 21 C18.71 21 14.42 21 10 21 C10 25.29 10 29.58 10 34 C16.435 33.505 16.435 33.505 23 33 C23 34.98 23 36.96 23 39 C15.41 39 7.82 39 0 39 C0 26.13 0 13.26 0 0 Z " fill="#1D1D1B" transform="translate(1341,709)"/>
<path d="M0 0 C7.59 0 15.18 0 23 0 C23 1.65 23 3.3 23 5 C18.71 5 14.42 5 10 5 C10 8.63 10 12.26 10 16 C16.435 15.505 16.435 15.505 23 15 C23 16.98 23 18.96 23 21 C18.71 21 14.42 21 10 21 C10 25.29 10 29.58 10 34 C16.435 33.505 16.435 33.505 23 33 C23 34.98 23 36.96 23 39 C15.41 39 7.82 39 0 39 C0 26.13 0 13.26 0 0 Z " fill="#1D1D1B" transform="translate(697,709)"/>
<path d="M0 0 C7.59 0 15.18 0 23 0 C23 1.65 23 3.3 23 5 C18.71 5 14.42 5 10 5 C10 8.63 10 12.26 10 16 C16.435 15.505 16.435 15.505 23 15 C23 16.98 23 18.96 23 21 C18.71 21 14.42 21 10 21 C10 25.29 10 29.58 10 34 C16.435 33.505 16.435 33.505 23 33 C23 34.98 23 36.96 23 39 C15.41 39 7.82 39 0 39 C0 26.13 0 13.26 0 0 Z " fill="#1D1D1B" transform="translate(879,709)"/>
<path d="M0 0 C3.3 0 6.6 0 10 0 C10 11.22 10 22.44 10 34 C16.435 33.505 16.435 33.505 23 33 C23 34.98 23 36.96 23 39 C15.41 39 7.82 39 0 39 C0 26.13 0 13.26 0 0 Z " fill="#1D1D1B" transform="translate(1369,709)"/>
<path d="M0 0 C3.3 0 6.6 0 10 0 C10 11.22 10 22.44 10 34 C16.435 33.505 16.435 33.505 23 33 C23 34.98 23 36.96 23 39 C15.41 39 7.82 39 0 39 C0 26.13 0 13.26 0 0 Z " fill="#1D1D1B" transform="translate(795,709)"/>
<path d="M0 0 C3.3 0 6.6 0 10 0 C10 11.22 10 22.44 10 34 C16.435 33.505 16.435 33.505 23 33 C23 34.98 23 36.96 23 39 C15.41 39 7.82 39 0 39 C0 26.13 0 13.26 0 0 Z " fill="#1D1D1B" transform="translate(922,709)"/>
<path d="M0 0 C3.3 0 6.6 0 10 0 C10 11.22 10 22.44 10 34 C16.435 33.505 16.435 33.505 23 33 C23 34.98 23 36.96 23 39 C15.41 39 7.82 39 0 39 C0 26.13 0 13.26 0 0 Z " fill="#1D1D1B" transform="translate(1168,709)"/>
<path d="M0 0 C3.3 0 6.6 0 10 0 C10 12.87 10 25.74 10 39 C6.7 39 3.4 39 0 39 C0 26.13 0 13.26 0 0 Z " fill="#1D1D1B" transform="translate(1196,709)"/>
<path d="M0 0 C3.125 1.125 3.125 1.125 5.125 4.125 C5.3125 6.875 5.3125 6.875 4.125 10.125 C1.41997011 12.90020755 -1.65283813 14.98916699 -4.875 17.125 C-5.85984375 17.785 -6.8446875 18.445 -7.859375 19.125 C-13.78634178 22.8556796 -17.83617125 25.07253464 -24.875 24.125 C-21.33209572 15.75641574 -9.45160977 0.30489064 0 0 Z " fill="#1D1D1B" transform="translate(1511.875,566.875)"/>
<path d="M0 0 C0.33 1.65 0.66 3.3 1 5 C-0.38552202 6.01423834 -1.78394288 7.01087002 -3.1875 8 C-3.96480469 8.556875 -4.74210937 9.11375 -5.54296875 9.6875 C-8.28336637 11.151369 -9.94100837 11.26080213 -13 11 C-10.44002209 4.94914312 -6.8784295 0 0 0 Z " fill="#1D1D1B" transform="translate(1120,696)"/>
<path d="M0 0 C0.70125 0.28875 1.4025 0.5775 2.125 0.875 C2.125 3.0625 2.125 3.0625 1.125 5.875 C-2.21116707 8.75906967 -5.46535122 10.72816159 -9.875 11.1875 C-10.865 11.0328125 -10.865 11.0328125 -11.875 10.875 C-9.35668271 6.11817845 -5.9038907 -0.2566909 0 0 Z " fill="#1D1D1B" transform="translate(1528.875,696.125)"/>
</svg>
